<svg xmlns="http://www.w3.org/2000/svg" id="Layer_1" viewBox="60 100 1080 400"><linearGradient id="SVGID_1_" x1="60.06" x2="1139.94" y1="259.762" y2="259.762" gradientUnits="userSpaceOnUse"><stop offset="0" stop-color="#00aced"/><stop offset="1" stop-color="#63358b"/></linearGradient><path fill="url(#SVGID_1_)" d="M782.55 361.32l27.15 56.71H620.75V101.49h67.7v259.83h94.1zm308.31 23.65c-1.88 1.88-3.79 3.69-5.73 5.46l-14.02-14.02c-65.26 57.44-160.13 56.2-225.07-8.73-65.82-65.82-66.24-162.42-6.4-227.74l13.8 13.8c1-1.06 1.98-2.13 3.02-3.17 64.35-64.35 165.7-66.84 233.47.93 67.46 67.47 65.59 168.81.93 233.47zm-44.77-189.63c-40.41-40.41-101.66-36.37-141.45 3.42-1.89 1.89-3.66 3.83-5.39 5.8l-13.63-13.63c-32.69 39.83-33.4 95.27 4.25 132.92 38.51 38.51 95.65 36.91 135.64 1.97l13.99 13.99c1.07-.98 2.13-1.98 3.17-3.02 39.8-39.8 43.84-101.04 3.42-141.45zm-631.53-93.85L263.43 418.03h70.6l22.49-51 20.67-47.48c13.19-29.9 29.9-72.1 39.13-94.09 9.67 27.7 23.74 61.11 38.25 94.09l20.22 47.48 23.29 51h70.67L417.2 101.49h-2.64zm-354.5 91.45c0 26.49 8.54 45.54 23.92 60.67H60.25c14 10.33 31.93 18.59 53.26 26.38 43.52 15.83 62.43 26.82 62.43 47.92 0 15.39-14.07 24.62-38.25 28.14-8.35 1.76-18.02 2.2-28.14 1.76-16.86-1.04-33.87-4.84-49.5-10.13v62.42c19.11 4.82 41.38 7.94 64.01 7.94 74.74 0 117.82-34.29 117.82-91.45 0-26.49-8.54-45.54-23.92-60.67h23.73c-14-10.33-31.93-18.59-53.26-26.38-43.52-15.83-62.43-26.82-62.43-47.92 0-15.39 14.07-24.62 38.25-28.14 8.35-1.76 18.02-2.2 28.14-1.76 16.86 1.04 33.87 4.84 49.5 10.13v-62.42c-19.11-4.82-41.38-7.94-64.01-7.94-74.74 0-117.82 34.29-117.82 91.45z"/><linearGradient id="SVGID_2_" x1="62.055" x2="1124.191" y1="217.044" y2="217.044" gradientUnits="userSpaceOnUse"><stop offset="0" stop-color="#00d2ff"/><stop offset="1" stop-color="#f0358b"/></linearGradient><path fill="url(#SVGID_2_)" d="M1072.31 242.46c-3.77-17.02-12.39-33.29-26.22-47.12-40.41-40.41-101.66-36.37-141.45 3.42-1.89 1.89-3.66 3.83-5.39 5.8l-13.63-13.63c-28.35 34.54-32.63 80.8-8.73 117.03-20.99 4.08-42.91 7.71-65.62 10.85-28.12-59.21-17.88-128.38 28.37-178.86l13.8 13.8c1-1.06 1.98-2.13 3.02-3.17 64.35-64.35 165.7-66.84 233.47.93 14.69 14.69 26.08 30.98 34.26 48.15-11.52 15.13-29.11 29.49-51.88 42.8zM620.75 101.49V332.6c22.96-.28 45.56-1.03 67.7-2.21v-228.9h-67.7zm-203.55 0h-2.64L316.6 306.67c19.72 3.95 40.28 7.51 61.58 10.63 13.02-29.73 29.14-70.39 38.14-91.83 9.67 27.7 23.74 61.11 38.25 94.09l2.98 7.01c22.64 2 45.88 3.54 69.6 4.58L417.2 101.49zM217.97 265.92h23.73c-14-10.33-31.93-18.59-53.26-26.38-43.52-15.83-62.43-26.82-62.43-47.92 0-15.39 14.07-24.62 38.25-28.14 8.35-1.76 18.02-2.2 28.14-1.76 16.86 1.04 33.87 4.84 49.5 10.13v-62.42c-19.11-4.82-41.38-7.94-64.01-7.94-65.4 0-106.57 26.26-115.83 71.12 11.78 44.69 75.22 84.59 170.85 113.38-3.84-7.45-8.85-14.08-14.94-20.07z"/><linearGradient id="SVGID_3_" x1="60.093" x2="1139.908" y1="486.391" y2="486.391" gradientUnits="userSpaceOnUse"><stop offset="0" stop-color="#00aced"/><stop offset="1" stop-color="#63358b"/></linearGradient><path fill="url(#SVGID_3_)" d="M624.24 498.12v-23.46h13.91v1.6h-12.02v9.19h10.23v1.6h-10.23v9.48h12.51v1.6h-14.4zm23.03-18.15c-.23-.26-.52-.59-.65-.81.03.39.07.88.07 1.5v17.46h-1.89v-23.85h.03l15.31 18.54c.23.29.52.62.65.81-.03-.36-.03-.88-.03-1.5V474.7h1.86v23.81h-.03l-15.32-18.54zm33.94 18.54c-6.97 0-12.18-5.31-12.18-12.12 0-6.74 5.21-12.12 12.22-12.12 3.26 0 5.77 1.01 7.2 1.79v1.86c-1.86-.94-4.3-1.89-7.2-1.89-6.09 0-10.29 4.56-10.29 10.36 0 5.86 4.23 10.36 10.26 10.36 2.05 0 4.14-.46 5.67-1.11v-7.62h1.82v8.7c-1.76.94-4.37 1.79-7.5 1.79zm14.11-.39v-23.46h1.89v23.46h-1.89zm12.57-18.15c-.23-.26-.52-.59-.65-.81.03.39.07.88.07 1.5v17.46h-1.89v-23.85h.03l15.31 18.54c.23.29.52.62.65.81-.03-.36-.03-.88-.03-1.5V474.7h1.86v23.81h-.03l-15.32-18.54zm23.55 18.15v-23.46h13.91v1.6h-12.02v9.19h10.23v1.6h-10.23v9.48h12.51v1.6h-14.4zm20.56 0v-23.46h13.91v1.6h-12.02v9.19h10.23v1.6h-10.23v9.48h12.51v1.6H752zm27.82-23.46c4.82 0 7.75 2.57 7.75 6.81 0 3.55-2.15 5.9-5.44 6.55l5.67 10.1h-2.08l-5.47-9.87h-5.8v9.87h-1.89v-23.46h7.26zm-5.38 1.6v10.42h5.38c3.68 0 5.83-1.99 5.83-5.21 0-3.26-2.18-5.21-5.9-5.21h-5.31zm19.55 21.86v-23.46h1.89v23.46h-1.89zm12.57-18.15c-.23-.26-.52-.59-.65-.81.03.39.07.88.07 1.5v17.46h-1.89v-23.85h.03l15.31 18.54c.23.29.52.62.65.81-.03-.36-.03-.88-.03-1.5V474.7h1.86v23.81h-.03l-15.32-18.54zm33.95 18.54c-6.97 0-12.18-5.31-12.18-12.12 0-6.74 5.21-12.12 12.22-12.12 3.26 0 5.77 1.01 7.2 1.79v1.86c-1.86-.94-4.3-1.89-7.2-1.89-6.09 0-10.29 4.56-10.29 10.36 0 5.86 4.23 10.36 10.26 10.36 2.05 0 4.14-.46 5.67-1.11v-7.62H848v8.7c-1.76.94-4.37 1.79-7.49 1.79zm20.26-23.85l5.38 15.31 1.56 4.46 1.56-4.46 5.31-14.99h.07l5.31 15.02 1.56 4.43 1.56-4.46 5.38-15.31h1.53l-8.44 23.85h-.06l-3.03-8.54-3.84-10.75-3.84 10.75-3.03 8.54h-.07l-8.44-23.85h1.53zm34.76 23.46v-23.46h1.43v23.46h-1.43zm15.73-22.22v22.22h-1.43V475.9h-7.33v-1.24h16.13v1.24h-7.37zm27.72 22.22v-11.24h-13.39v11.24h-1.43v-23.46h1.43v10.98h13.39v-10.98h1.43v23.46h-1.43zm34.86-20.2c-1.86-.94-4.33-1.89-7.2-1.89-6.03 0-10.26 4.56-10.26 10.36 0 5.83 4.23 10.36 10.26 10.36 2.96 0 5.5-.91 7.36-1.86v1.86c-1.47.78-4.01 1.76-7.36 1.76-6.97 0-12.18-5.31-12.18-12.12 0-6.74 5.21-12.12 12.18-12.12 3.26 0 5.77 1.01 7.2 1.79v1.86zm13.39-3.26c4.82 0 7.75 2.57 7.75 6.81 0 3.55-2.15 5.9-5.44 6.55l5.67 10.1h-2.08l-5.47-9.87h-5.8v9.87h-1.89v-23.46h7.26zm-5.38 1.6v10.42h5.38c3.68 0 5.83-1.99 5.83-5.21 0-3.26-2.18-5.21-5.9-5.21h-5.31zm19.55 21.86v-23.46h13.91v1.6h-12.02v9.19h10.23v1.6h-10.23v9.48h12.51v1.6h-14.4zm27.88-23.85h.07l10.49 23.85h-1.99l-2.67-6.09h-11.79l-2.64 6.09h-2.02l10.55-23.85zm5.21 16.16c-1.79-4.1-3.49-8.01-5.18-12.09-1.73 4.07-3.45 7.98-5.25 12.09h10.43zm14.47-14.17v21.86h-1.86v-21.86h-7.3v-1.6h16.48v1.6h-7.32zm12.63 21.86v-23.46h1.89v23.46h-1.89zm16.95.39h-.07l-10.26-23.85h2.02l5.57 13.23c.95 2.25 1.83 4.24 2.7 6.39.88-2.15 1.73-4.14 2.7-6.39l5.54-13.23h2.05l-10.25 23.85zm14.98-.39v-23.46h1.89v23.46h-1.89zm16.35-21.86v21.86h-1.86v-21.86h-7.3v-1.6h16.48v1.6h-7.32zm12.93-1.6l7.49 12.18 7.49-12.18h2.12l-8.67 14.01v9.45h-1.89v-9.45l-8.67-14.01h2.13zM60.09 485.68h553.46v1.43H60.09v-1.43z" opacity=".7"/></svg>